<svg width="24" height="24" viewBox="0 0 24 24" fill="none" xmlns="http://www.w3.org/2000/svg">
<path fill-rule="evenodd" clip-rule="evenodd" d="M18.7596 8.35356C16.9324 6.21939 14.013 5.9449 11.7637 6.11023C10.0487 6.23629 8.517 6.63189 7.70498 6.87943C7.43976 6.71367 7.1532 6.59649 6.87868 6.51393C6.3829 6.36482 5.83767 6.30139 5.30947 6.30522C4.31011 6.31246 3.09628 6.56771 2.33095 7.25673C1.95853 7.59202 1.89178 8.15119 2.17481 8.56472L3.55037 10.5745L3.09531 11.4662L2.18883 11.2919C1.8959 11.2355 1.59312 11.3129 1.36314 11.5029C1.13317 11.6929 1 11.9756 1 12.2739V15.7739C1 16.189 1.25641 16.5609 1.64435 16.7085L3.07351 17.2523L4.69819 18.9808L3.7663 21.6728C3.66048 21.9785 3.70906 22.3165 3.89669 22.58C4.08431 22.8435 4.38781 23 4.71128 23H8.00004C8.31408 23 8.60989 22.8524 8.79882 22.6016L9.37629 21.8348C9.88822 22.0803 10.6079 22.3111 11.5 22.3111C12.4086 22.3111 13.1767 22.0715 13.7172 21.834L14.152 22.5298C14.3347 22.8223 14.6552 23 15 23H18.2888C18.574 23 18.8456 22.8782 19.0354 22.6653C19.2251 22.4523 19.3149 22.1685 19.2822 21.8852L19.0459 19.8401C19.8267 18.9256 20.4145 17.7302 20.7218 16.4034C21.4883 16.2207 22.1105 15.797 22.5621 15.2904C23.1464 14.635 23.5 13.7802 23.5 13C23.5 12.0066 22.799 11.2418 22.0998 10.7868C21.4905 10.3903 20.7239 10.1138 19.904 10.0281C19.5967 9.44998 19.2173 8.88816 18.7596 8.35356ZM21.0692 13.9596C21.034 13.999 20.9972 14.037 20.9588 14.0731C20.9445 13.4914 20.8755 12.9018 20.7458 12.3144C20.8399 12.3605 20.928 12.4105 21.0091 12.4632C21.4625 12.7582 21.5 12.9934 21.5 13C21.5 13.2198 21.3764 13.615 21.0692 13.9596Z" fill="#393C47"/>
<path d="M10.9727 10.2065C10.9727 10.2065 12.1974 9.49944 14.1293 10.0171C16.0611 10.5347 16.7682 11.7595 16.7682 11.7595" stroke="#BABDC3" stroke-width="1.5" stroke-linecap="round" stroke-linejoin="round"/>
<path d="M9 12C9 12.5523 8.55228 13 8 13C7.44772 13 7 12.5523 7 12C7 11.4477 7.44772 11 8 11C8.55228 11 9 11.4477 9 12Z" fill="#BABDC3"/>
<path fill-rule="evenodd" clip-rule="evenodd" d="M14 0C11.7909 0 10 1.79086 10 4C10 6.20914 11.7909 8 14 8C16.2091 8 18 6.20914 18 4C18 1.79086 16.2091 0 14 0Z" fill="#BABDC3"/>
</svg>
