<svg xmlns="http://www.w3.org/2000/svg" viewBox="0 0 450.63 80.74"><path fill="#2b2a29" fill-rule="evenodd" d="M113.92 79.4L70.56 7.41l-13.7 22.7-13.71-22.7-30.06 49.9h29.65l27.82-46.22 26.75 44.38-4.21.01-22.54-37.23-25.57 42.74H10.84l-1.02 1.84h36.2l24.54-40.9 20.2 33.55-4.47.01-15.73-26.2-22.09 37.22H7.57l-1.03 1.84h42.95l21.07-35.38 13.68 22.52-5.37.02-8.31-13.54-17.79 30.06H4.29l-1.02 1.84h50.52l16.97-28.02 5.88 9.66-4.24.01-1.64-2.51-14.93 24.55H1.02L0 79.4h113.92z"/><path fill="#fdc400" fill-rule="evenodd" d="M1.02 77.56l2.25-3.69h50.52l16.97-28.02 5.88 9.66-4.24.01-1.64-2.51-14.93 24.55H1.02z"/><path fill="#fdc400" fill-rule="evenodd" d="M4.29 72.03h48.48l17.79-30.06 8.31 13.54 5.37-.02-13.68-22.52-21.07 35.38H6.54l-2.25 3.68z"/><path fill="#fdc400" fill-rule="evenodd" d="M7.57 66.51h40.9l22.09-37.22 15.73 26.2 4.47-.01-20.2-33.55-24.54 40.9H9.82l-2.25 3.68z"/><path fill="#fdc400" fill-rule="evenodd" d="M10.84 60.99h34.15l25.57-42.74L93.1 55.48l4.21-.01-26.75-44.38-27.82 46.22H13.09l-2.25 3.68z"/><path fill="#2b2a29" d="M405.86 45.31l15.55 34.12h18.36l-33.91-71.3-35.56 71.3h18.63l16.93-34.12zm-31.24-.97a41.23 41.23 0 00-2-13.14A32.9 32.9 0 00359 13.66a36.77 36.77 0 00-9.82-4.37 39.9 39.9 0 00-21.39 0 36.23 36.23 0 00-9.8 4.37 32.81 32.81 0 00-13.55 17.54 41.8 41.8 0 00-2 13.14 42.13 42.13 0 002 13.17 33.7 33.7 0 005.48 10.24 32.86 32.86 0 008.1 7.31 35.68 35.68 0 009.8 4.39 39.9 39.9 0 0021.39 0 36.21 36.21 0 009.79-4.39 33.14 33.14 0 008.08-7.31 33.68 33.68 0 005.48-10.24 41.56 41.56 0 002.06-13.17zm-53.7 0a22.1 22.1 0 011.5-8.32 16.73 16.73 0 019.66-9.5 18.27 18.27 0 0113 0 17 17 0 015.65 3.55 17.18 17.18 0 014 6 21.71 21.71 0 011.51 8.32 22.06 22.06 0 01-1.51 8.38 17.12 17.12 0 01-4 6 16.94 16.94 0 01-5.65 3.6 18.27 18.27 0 01-13 0 17 17 0 01-9.66-9.58 22.46 22.46 0 01-1.5-8.45zm-56.72-17.5a3.52 3.52 0 011.64-3.05 8.39 8.39 0 014.6-1.08 6.77 6.77 0 013.53.91 5.54 5.54 0 012.13 2.25 6.32 6.32 0 010 5.86 5.76 5.76 0 01-2.19 2.27 7.2 7.2 0 01-3.67.9h-4.73v14.66h4.93a10 10 0 015 1.2 7.53 7.53 0 013 3 7.86 7.86 0 010 7.71 7.66 7.66 0 01-3 3 10 10 0 01-5 1.18 9.44 9.44 0 01-4.63-1.12 7.71 7.71 0 01-3.08-3.12 9.75 9.75 0 01-1.14-4.81H245.8a27.65 27.65 0 003 13.31 19.46 19.46 0 008.46 8.09 29.1 29.1 0 0013.18 2.78A38.57 38.57 0 00282.32 79a23.5 23.5 0 008.48-4.68 19.55 19.55 0 005.1-7 22.35 22.35 0 001.69-8.71 20.15 20.15 0 00-2.4-10.24 18.64 18.64 0 00-7.76-7.16 14.29 14.29 0 003.42-3.74 17.74 17.74 0 002-4.56 17.41 17.41 0 00.67-4.72 20 20 0 00-1.46-7.5 19.4 19.4 0 00-4.34-6.52 21.08 21.08 0 00-7.23-4.61 28.35 28.35 0 00-10.1-1.74A33 33 0 00261.7 9a21.46 21.46 0 00-7.2 3.5 15.67 15.67 0 00-4.8 5.92 18.13 18.13 0 00-1.49 8.45zM221.44 47v32.43H240V8.74l-42.09 32.88V9H179.5v70.43zM139.3 25.13v54.3h17.8v-54.3h17.2V9H122v16.13z"/><path d="M439.78 0a10.87 10.87 0 012.7.35 11.83 11.83 0 012.63 1 10.45 10.45 0 012.33 1.71 10.91 10.91 0 011.74 2.32 11.43 11.43 0 011.08 2.66 10.77 10.77 0 01.37 2.78 10.65 10.65 0 01-.36 2.75 11.58 11.58 0 01-1.08 2.63 9.93 9.93 0 01-1.72 2.31 10.09 10.09 0 01-2.3 1.72 11.58 11.58 0 01-2.63 1.08 10.8 10.8 0 01-5.53 0 11.22 11.22 0 01-2.63-1.08 10.09 10.09 0 01-2.3-1.72 10 10 0 01-1.73-2.31 11.58 11.58 0 01-1.08-2.63 10.65 10.65 0 01-.36-2.75 10.48 10.48 0 01.37-2.79 11.15 11.15 0 011.09-2.65 9.89 9.89 0 011.75-2.32 10 10 0 012.33-1.71 11.22 11.22 0 012.62-1 10.83 10.83 0 012.71-.35zm0 2.64a7.85 7.85 0 00-2 .27 8.44 8.44 0 00-2 .8A7.25 7.25 0 00434 5a7.7 7.7 0 00-1.33 1.75 8.7 8.7 0 00-.83 2 7.89 7.89 0 00-.28 2.11 8 8 0 00.27 2.07 9.14 9.14 0 00.82 2 7.8 7.8 0 001.35 1.75 7.69 7.69 0 001.73 1.3 8.59 8.59 0 002 .82 7.69 7.69 0 002.09.28 8.13 8.13 0 002.08-.27 9.09 9.09 0 002-.83 7.27 7.27 0 001.31-.91h-3l-.13-.24-1-1.76c-.39-.67-.73-1.22-1-1.64a3.74 3.74 0 00-.73-.8 1.05 1.05 0 00-.44-.2 2.55 2.55 0 00-.72-.08h-.6v4.75h-2.73V5h4.31c.66 0 1.25 0 1.75.08a5.66 5.66 0 011.25.26 3.08 3.08 0 01.91.49 3.72 3.72 0 01.72.76 3.5 3.5 0 01.45.91 3.28 3.28 0 01.15 1 3.41 3.41 0 01-.4 1.27 3.4 3.4 0 01-.74 1.13 3.81 3.81 0 01-1.17.82l-.27.1.05.06a7.5 7.5 0 01.8.93c.27.37.58.83.92 1.37l1.41 2.19.35.55.25-.24a7.76 7.76 0 001.3-1.68 8.75 8.75 0 00.81-2 8.13 8.13 0 00.27-2.08 8.31 8.31 0 00-.27-2.11 8.53 8.53 0 00-.83-2A8 8 0 00445.56 5a7.45 7.45 0 00-1.74-1.28 8.69 8.69 0 00-2-.8 7.81 7.81 0 00-2.04-.28zm-2.3 7.22h1.73a5.84 5.84 0 001.22-.11 1.44 1.44 0 00.63-.26 1.11 1.11 0 00.31-.38 1.32 1.32 0 00.1-.51 1.14 1.14 0 00-.05-.33 1.3 1.3 0 00-.14-.29 1.09 1.09 0 00-.23-.25 1.38 1.38 0 00-.32-.17 3.33 3.33 0 00-.58-.11 10.63 10.63 0 00-1.07 0h-1.59z" fill="#2b2a29" fill-rule="evenodd"/></svg>