<svg width="30" height="31" viewBox="0 0 30 31" fill="none" xmlns="http://www.w3.org/2000/svg">
<g filter="url(#filter0_d_1276_7622)">
<path fill-rule="evenodd" clip-rule="evenodd" d="M13.4036 22.4797L13.6787 22.015C14.1195 21.2703 14.3399 20.8979 14.691 20.6902C15.0422 20.4825 15.5001 20.4678 16.4161 20.4385C17.275 20.4111 17.8523 20.3361 18.3458 20.1317C19.385 19.7012 20.2106 18.8756 20.641 17.8365C20.9639 17.0571 20.9639 16.0691 20.9639 14.093V13.2448C20.9639 10.4683 20.9639 9.08006 20.3389 8.06023C19.9892 7.48958 19.5094 7.0098 18.9388 6.66011C17.919 6.03516 16.5307 6.03516 13.7542 6.03516H11.2096C8.43314 6.03516 7.04489 6.03516 6.02507 6.66011C5.45442 7.0098 4.97464 7.48958 4.62495 8.06023C4 9.08006 4 10.4683 4 13.2448V14.093C4 16.0691 4 17.0571 4.32282 17.8365C4.75326 18.8756 5.57886 19.7012 6.61802 20.1317C7.11158 20.3361 7.68882 20.4111 8.5477 20.4385C9.46368 20.4678 9.92167 20.4825 10.2728 20.6902C10.6239 20.8979 10.8443 21.2703 11.2851 22.015L11.5602 22.4797C11.97 23.1721 12.9938 23.1721 13.4036 22.4797ZM16.1928 14.5171C16.7783 14.5171 17.253 14.0424 17.253 13.4568C17.253 12.8713 16.7783 12.3966 16.1928 12.3966C15.6072 12.3966 15.1325 12.8713 15.1325 13.4568C15.1325 14.0424 15.6072 14.5171 16.1928 14.5171ZM13.5422 13.4568C13.5422 14.0424 13.0675 14.5171 12.4819 14.5171C11.8964 14.5171 11.4217 14.0424 11.4217 13.4568C11.4217 12.8713 11.8964 12.3966 12.4819 12.3966C13.0675 12.3966 13.5422 12.8713 13.5422 13.4568ZM8.77108 14.5171C9.35664 14.5171 9.83133 14.0424 9.83133 13.4568C9.83133 12.8713 9.35664 12.3966 8.77108 12.3966C8.18553 12.3966 7.71084 12.8713 7.71084 13.4568C7.71084 14.0424 8.18553 14.5171 8.77108 14.5171Z" fill="#1C274C"/>
<path opacity="0.5" d="M18.486 1C19.7529 0.999992 20.7603 0.999986 21.5683 1.07681C22.3967 1.15558 23.0972 1.32069 23.7212 1.70307C24.3632 2.09648 24.9029 2.63623 25.2963 3.27821C25.6787 3.90219 25.8438 4.60265 25.9226 5.43112C25.9994 6.23907 25.9994 7.24658 25.9994 8.51343V9.37869C25.9994 10.2803 25.9994 10.9975 25.9597 11.579C25.9191 12.174 25.8344 12.6848 25.6362 13.1632C25.152 14.3323 24.2232 15.2611 23.0541 15.7453C23.0249 15.7574 22.9955 15.7691 22.966 15.7804C22.8249 15.8343 22.7039 15.8806 22.5978 15.915H20.9477C20.9639 15.416 20.9639 14.8217 20.9639 14.093V13.2448C20.9639 10.4683 20.9639 9.08006 20.3389 8.06023C19.9892 7.48958 19.5094 7.0098 18.9388 6.66011C17.919 6.03516 16.5307 6.03516 13.7542 6.03516H11.2096C10.2242 6.03516 9.41369 6.03516 8.73242 6.06309V4.4127C8.76513 4.29934 8.80995 4.16941 8.86255 4.0169C8.95202 3.75751 9.06509 3.51219 9.20848 3.27821C9.60188 2.63623 10.1416 2.09648 10.7836 1.70307C11.4076 1.32069 12.1081 1.15558 12.9365 1.07681C13.7445 0.999986 14.7519 0.999992 16.0188 1H18.486Z" fill="#1C274C"/>
</g>
<defs>
<filter id="filter0_d_1276_7622" x="-1" y="0" width="32" height="32" filterUnits="userSpaceOnUse" color-interpolation-filters="sRGB">
<feFlood flood-opacity="0" result="BackgroundImageFix"/>
<feColorMatrix in="SourceAlpha" type="matrix" values="0 0 0 0 0 0 0 0 0 0 0 0 0 0 0 0 0 0 127 0" result="hardAlpha"/>
<feOffset dy="4"/>
<feGaussianBlur stdDeviation="2"/>
<feComposite in2="hardAlpha" operator="out"/>
<feColorMatrix type="matrix" values="0 0 0 0 0 0 0 0 0 0 0 0 0 0 0 0 0 0 0.25 0"/>
<feBlend mode="normal" in2="BackgroundImageFix" result="effect1_dropShadow_1276_7622"/>
<feBlend mode="normal" in="SourceGraphic" in2="effect1_dropShadow_1276_7622" result="shape"/>
</filter>
</defs>
</svg>
