<?xml version="1.0" encoding="UTF-8"?>
<!DOCTYPE svg PUBLIC "-//W3C//DTD SVG 1.1//EN" "http://www.w3.org/Graphics/SVG/1.1/DTD/svg11.dtd">
<!-- Creator: CorelDRAW X6 -->
<svg xmlns="http://www.w3.org/2000/svg" xml:space="preserve" width="87.549mm" height="18.801mm" version="1.1" style="shape-rendering:geometricPrecision; text-rendering:geometricPrecision; image-rendering:optimizeQuality; fill-rule:evenodd; clip-rule:evenodd"
viewBox="0 0 8754900 1880100"
 xmlns:xlink="http://www.w3.org/1999/xlink">
 <defs>
  <style type="text/css">
   <![CDATA[
    .fil1 {fill:#05589D}
    .fil0 {fill:#4295D1}
    .fil2 {fill:#E31E24}
    .fil3 {fill:#EB6020}
    .fil4 {fill:#F0832B}
    .fil5 {fill:#F8AD05}
    .fil6 {fill:#FFED00}
    .fil7 {fill:#E31E24;fill-rule:nonzero}
   ]]>
  </style>
 </defs>
 <g id="Layer_x0020_1">
  <metadata id="CorelCorpID_0Corel-Layer"/>
  <g id="_820948928">
   <path class="fil0" d="M800570 0c-153200,232500 -557950,295360 -781830,153260 -84230,725400 105280,1397370 781830,1726840 95770,-46640 181770,-100150 258630,-159700 -38950,-73410 -61050,-157120 -61050,-245990 0,-307060 238580,-577700 427710,-800850 47500,58270 96390,116240 141630,176250 40600,-219130 42970,-454870 14910,-696550 -223880,142100 -628630,79240 -781830,-153260z"/>
   <path class="fil1" d="M800570 0c-153200,232500 -557950,295360 -781830,153260 -84230,725400 105280,1397370 781830,1726840l0 -1880100z"/>
   <path class="fil2" d="M1118150 1474410c0,224060 181630,405690 405690,405690 224060,0 405690,-181630 405690,-405690 0,-158730 -106560,-311010 -198260,-429360 0,0 -45640,58910 -92900,135550 -87250,-163430 -214310,-319320 -214310,-319320 -114910,135570 -305910,379430 -305910,613130z"/>
   <path class="fil3" d="M1118150 1474410c0,224060 181630,405690 405690,405690l0 -884520c-54810,-79110 -99780,-134300 -99780,-134300 -114910,135570 -305910,379430 -305910,613130z"/>
   <path class="fil4" d="M1421290 1056990c-93130,125390 -183140,279480 -183140,417420 0,157820 127870,285690 285690,285690 157820,0 285690,-127870 285690,-285690 0,-72290 -33780,-148880 -76400,-218850 -47310,54720 -80300,108890 -102250,165810 -49580,-126950 -119470,-250960 -209590,-364380z"/>
   <circle class="fil5" cx="1523835" cy="1585645" r="174465"/>
   <path class="fil6" d="M1523840 1760110c-96360,-10 -174470,-78120 -174470,-174480 0,-96330 78110,-174440 174470,-174450l0 348930z"/>
   <path class="fil7" d="M2605280 1113990l0 46750c0,60550 -46420,65740 -92090,65740l-118840 0 0 -32160 114110 0c25750,0 52360,280 52360,-35470l0 -36820c0,-19550 -21140,-29320 -63370,-29320l-63850 0 0 -29320 55810 0c42560,0 63840,-10090 63840,-30270l0 -37770c0,-16390 -10490,-24590 -51480,-24590l-107420 0 0 -30740 106950 0c36590,0 94990,1010 94990,51550l0 43440c0,23000 -10220,36250 -32090,37830 22360,2790 41080,11360 41080,41150zm2335780 506150c0,69380 -45750,78510 -104040,78510 -58770,0 -103100,-8360 -103100,-78510l0 -145450c0,-73460 54830,-83240 114920,-83240l77560 0 0 30270 -83710 0c-42670,0 -66680,3780 -66680,52020l0 26420c18760,-12520 55530,-19870 78030,-19870 50840,0 87020,16820 87020,72830l0 67020zm-2353290 73780l-42560 0 0 -177680 -108300 0 0 177680 -42560 0 0 -208900 193420 0 0 208900zm1939480 -291120c-2520,35290 -30100,60060 -65260,60060 -35270,0 -63350,-24300 -65270,-60060l40680 0c7110,19820 11370,31690 34520,31690 20740,0 28540,-13670 34050,-31690l21280 0zm-126270 291120l-55330 0 0 -208900 40200 0 0 164920 113500 -164920 55330 0 0 208900 -40200 0 0 -169170 -113500 169170zm-121540 -131810l0 59450c0,74290 -44330,77090 -105460,77090 -61730,0 -105460,-2810 -105460,-77090l0 -59450c0,-76370 41250,-81820 105460,-81820 64200,0 105460,5470 105460,81820zm-43510 65600l0 -72690c0,-46240 -21250,-46820 -61950,-46820 -40700,0 -61950,590 -61950,46820l0 72690c0,44360 24860,43040 61950,43040 37090,0 61950,1330 61950,-43040zm-232680 66210l-42560 0 0 -92630 -112560 0 0 92630 -42560 0 0 -208900 42560 0 0 85060 112560 0 0 -85060 42560 0 0 208900zm-361320 -208900c57270,0 83290,5820 83700,66410l10 80330c0,58890 -29540,62160 -82760,62160l-68570 0 0 73640 -42570 0 0 -282540 110190 0zm42100 145320l0 -78910c0,-32030 -7120,-39450 -40680,-39450 -23010,0 -46030,0 -69040,0l0 155450 65730 0c36680,0 43990,50 43990,-37090zm-336260 63580c-57720,0 -83710,-5900 -83710,-67830 0,-58890 29540,-62160 82760,-62160l68570 0 0 -16950c0,-32980 -29690,-32160 -55330,-32160l-78510 0 0 -29800 84660 0c61340,0 91750,3790 91750,71890l0 137010 -110190 0zm67620 -103500l-65730 0c-36680,0 -43990,-50 -43990,37090 0,32030 7120,39450 40680,39450 23010,0 46030,0 69040,0l0 -76540zm-396370 14660l-78920 88840 -50600 0 94000 -104450 -94000 -104450 50600 0 78920 88840 29860 0 0 -88840 39240 0 0 88840 29860 0 78920 -88840 50600 0 -94000 104450 94000 104450 -50600 0 -78920 -88840 -29860 0 0 88840 -19620 0 -19620 0 0 -88840 -29860 0zm-152220 -42970l0 59450c0,74290 -44330,77090 -105460,77090 -61730,0 -105460,-2810 -105460,-77090l0 -59450c0,-76370 41250,-81820 105460,-81820 64200,0 105460,5470 105460,81820zm-43510 65600l0 -72690c0,-46240 -21250,-46820 -61950,-46820 -40700,0 -61950,590 -61950,46820l0 72690c0,44360 24860,43040 61950,43040 37090,0 61950,1330 61950,-43040zm5038110 -220720l-16560 202280 -23640 0 -16560 -202280 56760 0zm-950 286930l-54860 0 0 -51080 54860 0 0 51080zm-284230 0l-55330 0 0 -208900 40200 0 0 164920 113500 -164920 55330 0 0 208900 -40200 0 0 -169170 -113500 169170zm-103570 -177680l-89380 0 0 177680 -42560 0 0 -177680 -89860 0 0 -31220 221800 0 0 31220zm-424210 48230c0,-66670 23310,-79450 85460,-79450l85260 0 0 28850 -90460 0c-26260,0 -36750,9660 -36750,44460l0 62280c0,34800 10470,44460 36750,44460l90460 0 0 28850 -85260 0c-62150,0 -85460,-12780 -85460,-79450l0 -50000zm-57700 -2360l0 59450c0,74290 -44330,77090 -105460,77090 -61730,0 -105460,-2810 -105460,-77090l0 -59450c0,-76370 41250,-81820 105460,-81820 64200,0 105460,5470 105460,81820zm-43510 65600l0 -72690c0,-46240 -21250,-46820 -61950,-46820 -40700,0 -61950,590 -61950,46820l0 72690c0,44360 24860,43040 61950,43040 37090,0 61950,1330 61950,-43040zm-232680 66210l-42560 0 0 -92630 -112560 0 0 92630 -42560 0 0 -208900 42560 0 0 85060 112560 0 0 -85060 42560 0 0 208900zm-425630 -129450c0,-66670 23310,-79450 85460,-79450l85260 0 0 28850 -90460 0c-26260,0 -36750,9660 -36750,44460l0 62280c0,34800 10470,44460 36750,44460l90460 0 0 28850 -85260 0c-62150,0 -85460,-12780 -85460,-79450l0 -50000zm-175460 129450c-57720,0 -83710,-5900 -83710,-67830 0,-58890 29540,-62160 82760,-62160l68570 0 0 -16950c0,-32980 -29690,-32160 -55330,-32160l-78510 0 0 -29800 84660 0c61340,0 91750,3790 91750,71890l0 137010 -110190 0zm67620 -103500l-65730 0c-36680,0 -43990,-50 -43990,37090 0,32030 7120,39450 40680,39450 23010,0 46030,0 69040,0l0 -76540zm-214710 103500l-42560 0 0 -177680 -108300 0 0 177680 -42560 0 0 -208900 193420 0 0 208900zm-262470 -131810l0 59450c0,74290 -44330,77090 -105460,77090 -61730,0 -105460,-2810 -105460,-77090l0 -59450c0,-76370 41250,-81820 105460,-81820 64200,0 105460,5470 105460,81820zm-43510 65600l0 -72690c0,-46240 -21250,-46820 -61950,-46820 -40700,0 -61950,590 -61950,46820l0 72690c0,44360 24860,43040 61950,43040 37090,0 61950,1330 61950,-43040zm-224170 1960l0 3710c0,59170 -42760,60540 -89310,60540l-96550 0 0 -30740 98910 0c25390,0 43440,1210 43440,-31210l0 -5140c0,-26510 -21810,-27430 -41070,-27430l-68170 0 0 -27900 63910 0c28740,0 34460,-5260 34460,-26750l0 -3460c0,-21580 -10430,-26950 -35880,-26950l-95600 0 0 -29320 93240 0c47380,0 78910,-300 78910,55810l0 4910c0,17730 -6770,30460 -21150,35210 21970,2680 34860,22910 34860,48720zm-236470 -30740l-153700 0 0 19790c0,39910 17690,44460 49520,44460l95200 0 0 30740 -108440 0c-46580,0 -79310,-13970 -79310,-69990l0 -65600c0,-65260 44310,-78040 101200,-78040 57520,0 95530,14040 95530,78040l0 40600zm-42560 -27900l0 -25950c0,-33640 -26270,-36410 -53910,-36410 -27740,0 -57230,1790 -57230,36410l0 25950 111140 0zm-258220 51480l0 -68910c0,-37630 -22090,-41150 -54860,-41150 -21360,0 -54580,7760 -68100,25540l0 84520c0,44840 22240,48240 61950,48240 40280,0 61010,-3150 61010,-48240zm2240270 -396030l-42560 0 0 -177680 -108300 0 0 177680 -42560 0 0 -208900 193420 0 0 208900zm1499200 0c-57720,0 -83710,-5900 -83710,-67830 0,-58890 29540,-62160 82760,-62160l68570 0 0 -16950c0,-32980 -29690,-32160 -55330,-32160l-78510 0 0 -29800 84660 0c61340,0 91750,3790 91750,71890l0 137010 -110190 0zm67620 -103500l-65730 0c-36680,0 -43990,-50 -43990,37090 0,32030 7120,39450 40680,39450 23010,0 46030,0 69040,0l0 -76540zm-394890 40130l0 -145530 183020 0 0 208900 -42090 0 0 -177680 -98840 0 0 111000c0,15440 -1660,27980 -4960,37590 -10610,30840 -44540,32400 -72130,32400 -6300,0 -11350,-160 -15130,-470l0 -26490c20180,0 33580,-2600 40200,-7800 6620,-5200 9930,-15840 9930,-31920zm-240720 63370l-55330 0 0 -208900 40200 0 0 164920 113500 -164920 55330 0 0 208900 -40200 0 0 -169170 -113500 169170zm-120600 -64250l0 3710c0,59170 -42760,60540 -89310,60540l-113570 0 0 -208900 110260 0c47380,0 78910,-300 78910,55810l0 4910c0,17730 -6770,30460 -21150,35210 21970,2680 34860,22910 34860,48720zm-54380 -84920l0 -3460c0,-21580 -10430,-26950 -35880,-26950l-70060 0 0 57160 71480 0c28740,0 34460,-5260 34460,-26750zm10870 87220l0 -5140c0,-26510 -21810,-27430 -41070,-27430l-75740 0 0 63780 73370 0c25390,0 43440,1210 43440,-31210zm-346180 61950c-57720,0 -83710,-5900 -83710,-67830 0,-58890 29540,-62160 82760,-62160l68570 0 0 -16950c0,-32980 -29690,-32160 -55330,-32160l-78510 0 0 -29800 84660 0c61340,0 91750,3790 91750,71890l0 137010 -110190 0zm67620 -103500l-65730 0c-36680,0 -43990,-50 -43990,37090 0,32030 7120,39450 40680,39450 23010,0 46030,0 69040,0l0 -76540zm-301730 -105400c57270,0 83290,5820 83700,66410l10 80330c0,58890 -29540,62160 -82760,62160l-68570 0 0 73640 -42570 0 0 -282540 110190 0zm42100 145320l0 -78910c0,-32030 -7120,-39450 -40680,-39450 -23010,0 -46030,0 -69040,0l0 155450 65730 0c36680,0 43990,50 43990,-37090zm-3066950 -65870c0,-66670 23310,-79450 85460,-79450l85260 0 0 28850 -90460 0c-26260,0 -36750,9660 -36750,44460l0 62280c0,34800 10470,44460 36750,44460l90460 0 0 28850 -85260 0c-62150,0 -85460,-12780 -85460,-79450l0 -50000zm2456400 129450l-39260 0 0 -170120 -72830 170120 -43040 0 -75660 -170120 0 170120 -40200 0 0 -208900 63570 0 74520 166340 1890 0 69790 -166340 61220 0 0 208900zm-338630 -94990l-153700 0 0 19790c0,39910 17690,44460 49520,44460l95200 0 0 30740 -108440 0c-46580,0 -79310,-13970 -79310,-69990l0 -65600c0,-65260 44310,-78040 101200,-78040 57520,0 95530,14040 95530,78040l0 40600zm-42560 -27900l0 -25950c0,-33640 -26270,-36410 -53910,-36410 -27740,0 -57230,1790 -57230,36410l0 25950 111140 0zm-329630 122890c-57720,0 -83710,-5900 -83710,-67830 0,-58890 29540,-62160 82760,-62160l68570 0 0 -16950c0,-32980 -29690,-32160 -55330,-32160l-78510 0 0 -29800 84660 0c61340,0 91750,3790 91750,71890l0 137010 -110190 0zm67620 -103500l-65730 0c-36680,0 -43990,-50 -43990,37090 0,32030 7120,39450 40680,39450 23010,0 46030,0 69040,0l0 -76540zm-259160 73230l0 -148360 -71410 0 0 11820c0,59900 -8520,92090 -25540,136540l96950 0zm-109250 -162550l0 -16080 147080 0 0 178630 22710 0 0 93640 -36420 0 0 -63370 -148030 0 0 63370 -36410 0 0 -93640 21750 0c19550,-43820 29320,-84670 29320,-162550zm-358480 192820l-42560 0 0 -208900 42560 0 0 93100 59590 0 0 -16010c0,-76360 41260,-81820 105460,-81820 64200,0 105470,5470 105470,81820l0 59450c0,74270 -44360,77090 -105470,77090 -61720,0 -105460,-2820 -105460,-77090l0 -17430 -59590 0 0 89790zm227010 -66210l0 -72690c0,-46240 -21270,-46820 -61960,-46820 -40700,0 -61950,600 -61950,46820l0 72690c0,44340 24870,43040 61950,43040 37080,0 61960,1330 61960,-43040zm-529210 2840l0 -145530 183020 0 0 208900 -42090 0 0 -177680 -98840 0 0 111000c0,15440 -1660,27980 -4960,37590 -10610,30840 -44540,32400 -72130,32400 -6300,0 -11350,-160 -15130,-470l0 -26490c20180,0 33580,-2600 40200,-7800 6620,-5200 9930,-15840 9930,-31920zm-83710 -10410c0,69380 -45750,78510 -104040,78510 -58770,0 -103100,-8360 -103100,-78510l0 -145450c0,-73460 54830,-83240 114920,-83240l77560 0 0 30270 -83710 0c-42670,0 -66680,3780 -66680,52020l0 26420c18760,-12520 55530,-19870 78030,-19870 50840,0 87020,16820 87020,72830l0 67020zm-42090 2370l0 -68910c0,-37630 -22090,-41150 -54860,-41150 -21360,0 -54580,7760 -68100,25540l0 84520c0,44840 22240,48240 61950,48240 40280,0 61010,-3150 61010,-48240zm-227950 -60400l0 59450c0,74290 -44330,77090 -105460,77090 -61730,0 -105460,-2810 -105460,-77090l0 -59450c0,-76370 41250,-81820 105460,-81820 64200,0 105460,5470 105460,81820zm-43510 65600l0 -72690c0,-46240 -21250,-46820 -61950,-46820 -40700,0 -61950,590 -61950,46820l0 72690c0,44360 24860,43040 61950,43040 37090,0 61950,1330 61950,-43040zm-714590 66210l-55330 0 0 -208900 40200 0 0 164920 113500 -164920 55330 0 0 208900 -40200 0 0 -169170 -113500 169170zm-240710 0l-39260 0 0 -170120 -72830 170120 -43040 0 -75660 -170120 0 170120 -40200 0 0 -208900 63570 0 74520 166340 1890 0 69790 -166340 61220 0 0 208900zm-338630 -94990l-153700 0 0 19790c0,39910 17690,44460 49520,44460l95200 0 0 30740 -108440 0c-46580,0 -79310,-13970 -79310,-69990l0 -65600c0,-65260 44310,-78040 101200,-78040 57520,0 95530,14040 95530,78040l0 40600zm-42560 -27900l0 -25950c0,-33640 -26270,-36410 -53910,-36410 -27740,0 -57230,1790 -57230,36410l0 25950 111140 0zm-329630 122890c-57720,0 -83710,-5900 -83710,-67830 0,-58890 29540,-62160 82760,-62160l68570 0 0 -16950c0,-32980 -29690,-32160 -55330,-32160l-78510 0 0 -29800 84660 0c61340,0 91750,3790 91750,71890l0 137010 -110190 0zm67620 -103500l-65730 0c-36680,0 -43990,-50 -43990,37090 0,32030 7120,39450 40680,39450 23010,0 46030,0 69040,0l0 -76540zm-211870 103500l-42560 0 0 -92630 -112560 0 0 92630 -42560 0 0 -208900 42560 0 0 85060 112560 0 0 -85060 42560 0 0 208900z"/>
   <path class="fil1" d="M8587100 619390l-172770 0 0 -117370 172770 0c22540,0 39630,17090 39630,39630l0 38100c0,22530 -17100,39640 -39630,39640zm-5656280 85830l0 -572670 -536470 0 0 572670 132400 0 0 -474140 271670 0 0 474140 132400 0zm462170 -299030l0 169330c0,28000 -15870,43870 -43870,43870l-141600 0c-28000,0 -43870,-15740 -43870,-43870l0 -169330c0,-28130 15740,-43870 43870,-43870l141600 0c28130,0 43870,15740 43870,43870zm128170 182030l0 -194730c0,-79360 -46100,-125470 -125470,-125470l-234740 0c-79350,0 -125460,46130 -125460,125470l0 194730c0,79360 46100,125470 125460,125470l234740 0c79350,0 125470,-46120 125470,-125470zm198820 117000l93130 -169330 78240 0 0 169330 128170 0 0 -169330 78250 0 93130 169330 137810 0 -121180 -214080 107330 -214660 -130050 0 -82540 165110 -82750 0 0 -165110 -128170 0 0 165110 -82740 0 -82560 -165110 -130040 0 107340 214660 -121180 214080 137810 0zm998920 0l137810 0 -121180 -214080 107380 -214660 -130100 0 -82540 165110 -103910 0 0 -165110 -128170 0 0 428740 128170 0 0 -169330 99410 0 93130 169330zm556330 -299030l0 169330c0,28050 -15820,43870 -43870,43870l-141600 0c-28050,0 -43870,-15740 -43870,-43870l0 -169330c0,-28130 15740,-43870 43870,-43870l141600 0c28130,0 43870,15740 43870,43870zm128170 182030l0 -194730c0,-79350 -46110,-125470 -125470,-125470l-234740 0c-79360,0 -125460,46120 -125460,125470l0 194730c0,79350 46110,125470 125460,125470l234740 0c79350,0 125470,-46120 125470,-125470zm224360 -311740l-128170 0 0 428740 128170 0 0 -169330 212400 0 0 169330 128170 0 0 -428740 -128170 0 0 165110 -212400 0 0 -165110zm858940 94310l0 -94310 -447570 0 0 94310 159700 0 0 334430 128160 0 0 -334430 159710 0zm198960 240130l-10 -240140 177010 0c28060,0 43870,15810 43870,43870l0 152400c0,28110 -15760,43870 -43870,43870l-177000 0zm-128170 -334440l0 572670 128170 0 0 -143930 223570 0c34330,0 67560,-8200 92410,-33050 24850,-24850 33060,-58090 33060,-92420l0 -177800c0,-34330 -8210,-67570 -33060,-92420 -24850,-24850 -58080,-33050 -92410,-33050l-351740 0zm922440 129710l0 169330c0,28110 -15760,43870 -43870,43870l-141600 0c-28110,0 -43870,-15740 -43870,-43870l0 -169330c0,-28130 15740,-43870 43870,-43870l141600 0c28130,0 43870,15740 43870,43870zm128170 182030l0 -194730c0,-79360 -46110,-125470 -125470,-125470l-234740 0c-79370,0 -125460,46100 -125460,125470l0 194730c0,79350 46100,125470 125460,125470l234740 0c79350,0 125470,-46120 125470,-125470zm573400 -311740l-426950 0 -16410 295360c-1490,27000 -16240,43310 -43850,43310l-23860 0 0 91600c23770,3720 50690,6940 74660,6940 70580,0 113010,-49410 117020,-117590l13250 -225310 177970 0 0 334430 128170 0 0 -428740zm104660 428740l351740 0c71560,0 117000,-45440 117000,-117000l0 -55030c0,-71560 -45440,-117000 -117000,-117000l-223570 0 0 -139710 -128170 0 0 428740z"/>
  </g>
 </g>
</svg>

